<svg xmlns="http://www.w3.org/2000/svg" xmlns:xlink="http://www.w3.org/1999/xlink" width="16" height="16" viewBox="0 0 16 16">
    <defs>
        <path id="m0wo5qbhla" d="M11.685.234c-.39-.334-.998-.308-1.355.061l-5.856 6.06-2.83-2.703c-.373-.355-.98-.36-1.357-.01-.378.349-.384.92-.011 1.275l3.541 3.384c.182.173.427.27.685.27h.018c.265-.005.515-.111.692-.295l6.539-6.767c.356-.37.327-.94-.066-1.275z"/>
    </defs>
    <g fill="none" fill-rule="evenodd">
        <g>
            <g>
                <g>
                    <g transform="translate(-564 -352) translate(56 56) translate(492 280) translate(18 20)">
                        <mask id="of8nd6wg2b" fill="#fff">
                            <use xlink:href="#m0wo5qbhla"/>
                        </mask>
                        <use fill="#000" fill-rule="nonzero" xlink:href="#m0wo5qbhla"/>
                        <path fill="#FFF" d="M-2 -4H14V12H-2z" mask="url(#of8nd6wg2b)"/>
                    </g>
                </g>
            </g>
        </g>
    </g>
</svg>
