<svg xmlns="http://www.w3.org/2000/svg" xmlns:xlink="http://www.w3.org/1999/xlink" width="532" height="768" viewBox="0 0 532 768">
    <defs>
        <path id="ezag1rnqxa" d="M31 0H563V768H31z"/>
    </defs>
    <g fill="none" fill-rule="evenodd">
        <g>
            <g transform="translate(-908) translate(877)">
                <mask id="67gtdrqbkb" fill="#fff">
                    <use xlink:href="#ezag1rnqxa"/>
                </mask>
                <use fill="#091E42" xlink:href="#ezag1rnqxa"/>
                <g fill="#FFF" fill-rule="nonzero" mask="url(#67gtdrqbkb)" opacity=".5">
                    <g opacity=".2">
                        <path d="M134 19L136.895 257.222 262 318 259.105 79.778zM93.599 0L0 191.383 127 253 124.101 14.799zM656 273.636L404 151 406.89 389.177 562.696 465zM269 84L271.895 322.222 397 383 394.105 144.778z" transform="matrix(-1 0 0 1 656 470)"/>
                    </g>
                </g>
                <g mask="url(#67gtdrqbkb)">
                    <g>
                        <g>
                            <path fill="#97A0AF" fill-rule="nonzero" stroke="#000" stroke-width="3" d="M465 16.6H8.5c-4.4 0-8-3.6-8-8h0c0-4.4 3.6-8 8-8H465c4.4 0 8 3.6 8 8h0c0 4.4-3.6 8-8 8z" transform="translate(61 307) translate(0 329)"/>
                        </g>
                        <g>
                            <g fill="#B3BAC5" fill-rule="nonzero" transform="translate(61 307) translate(238)">
                                <path d="M87.2 144.2v14.9l12.9-7.5-12.9-7.4zm-5.2 24c-1.1-.6-1.7-1.8-1.7-3v-27c0-1.2.7-2.4 1.7-3 1.1-.6 2.4-.6 3.5 0l23.4 13.5c1.1.6 1.7 1.8 1.7 3s-.7 2.4-1.7 3l-23.4 13.5c-.5.3-1.1.5-1.8.5-.6 0-1.2-.2-1.7-.5zM186.2 286.5H4.4c-1.9 0-3.5-1.6-3.5-3.5s1.6-3.5 3.5-3.5h181.8c1.9 0 3.5 1.6 3.5 3.5s-1.5 3.5-3.5 3.5zM186.2 49H4.4C2.5 49 .9 47.4.9 45.5S2.5 42 4.4 42h181.8c1.9 0 3.5 1.6 3.5 3.5s-1.5 3.5-3.5 3.5zM102.4 28.1H74.5c-1.9 0-3.5-1.6-3.5-3.5s1.6-3.5 3.5-3.5h27.9c1.9 0 3.5 1.6 3.5 3.5s-1.5 3.5-3.5 3.5zM109.4 307.4H81.5c-1.9 0-3.5-1.6-3.5-3.5s1.6-3.5 3.5-3.5h27.9c1.9 0 3.5 1.6 3.5 3.5 0 2-1.5 3.5-3.5 3.5z"/>
                                <circle cx="123.412" cy="24.578" r="7" transform="rotate(-80.782 123.412 24.578)"/>
                                <path d="M32.6 7.1C19 7.1 7.9 18.2 7.9 31.8v264.9c0 13.6 11.1 24.7 24.7 24.7h125.5c13.6 0 24.7-11.1 24.7-24.7l.2-131.6-.2-119.5V31.8c0-13.6-11.1-24.7-24.7-24.7H32.6zm125.5 321.3H32.6C15.1 328.4.9 314.2.9 296.7V31.8C.9 14.3 15.1.1 32.6.1h125.5c17.5 0 31.7 14.2 31.7 31.7v13.8l.2 119.5-.2 131.6c-.1 17.5-14.3 31.7-31.7 31.7z"/>
                                <path d="M43.1 203.6h104.8v-97.8H43.1v97.8zm108.2 7H39.6c-1.9 0-3.5-1.6-3.5-3.5V102.4c0-1.9 1.6-3.5 3.5-3.5h111.7c1.9 0 3.5 1.6 3.5 3.5v104.8c0 1.8-1.5 3.4-3.5 3.4zM165.3 233.5H25.6c-1.9 0-3.5-1.6-3.5-3.5s1.6-3.5 3.5-3.5h139.7c1.9 0 3.5 1.6 3.5 3.5s-1.6 3.5-3.5 3.5z"/>
                                <path d="M53.6 240.5c-1.9 0-3.5-1.6-3.5-3.5v-14c0-1.9 1.6-3.5 3.5-3.5s3.5 1.6 3.5 3.5v14c-.1 2-1.6 3.5-3.5 3.5z"/>
                            </g>
                        </g>
                        <g>
                            <path fill="#000" fill-rule="nonzero" stroke="#000" d="M27.5 66.6s-11-1.4-13.4-3.3C11.7 61.4 2 49.5 1 44c-1.1-5.4 2.6-15 6.3-18.5 3.7-3.5-.5-8.4 1.1-11.2C9.9 11.5 30.1.7 39.2.9c9.1.2 16.9 8.5 19.1 11.3 2.2 2.8 3.3 7.7 1.7 12.4-1.6 4.8-32.5 42-32.5 42z" transform="translate(61 307) translate(133 24)"/>
                        </g>
                        <g>
                            <path fill="#EBECF0" fill-rule="nonzero" stroke="#000" stroke-width="2" d="M.4 74.6l2.1-2.9s11.3-6.3 12.8-8.4c1.5-2.1 7.8-15.3 7.8-16.9 0-1.6-1.4-4.9-2.5-5.4s-8.2-1.7-6.8-6.1c1.4-4.4 6.6-3.1 7.6-.7 1 2.4 4.4 2.9 6.2 1.2 1.8-1.6 2.3-7 1-9.5-1.4-2.6-5.1-7.6-4.9-10.5.1-2.9-2-4.2 3.7-5.9C33.1 7.7 48.2 6.3 49.1.2c0 0 6.3 7.3 7.7 9.5 1.4 2.2 5.9 22.9-.9 30.7-6.8 7.8-14.1 8-16.1 7.9l-3.2 11.3 6.1 2.1s4.3 7.1 2.4 11.2-16.3 14.9-21.5 13.9C18.4 85.8.4 74.6.4 74.6z" transform="translate(61 307) translate(136 43)"/>
                        </g>
                        <g>
                            <path fill="#000" fill-rule="nonzero" stroke="#000" d="M84.6 101L52.3 14 52.3 0.3 0.6 9.4 0 81.6 8.1 99.7z" transform="translate(61 307) translate(129 229)"/>
                        </g>
                        <g>
                            <path fill="#000" fill-rule="nonzero" stroke="#000" d="M53.5.3S42.7.7 40.1 12.7c-2.7 12-12 49.9-12 49.9H.6v12.8h119.1l18.1-61.2S141.9.1 130.1.3c-11.7.2-76.6 0-76.6 0z" transform="translate(61 307) translate(199 253)"/>
                        </g>
                        <g>
                            <path fill="#FBFFFF" fill-rule="nonzero" d="M17.9.6S11.3 0 10 5.7C8.7 11.4.4 50.1.4 50.1l74.1-.5L86.2 8S88.5.3 82.1.5c-6.4.3-64.2.1-64.2.1z" transform="translate(61 307) translate(237 261)"/>
                        </g>
                        <g>
                            <path fill="#2A95FF" fill-rule="nonzero" d="M62.4 31.2h-7.8c-4 0-7-4.1-5.7-7.9l6-18.7c.7-2.3 2.8-3.8 5.2-3.7h7.8c4 0 7 4.1 5.7 7.9l-6 18.7c-.8 2.2-2.8 3.7-5.2 3.7z" transform="translate(61 307) translate(244 266)"/>
                            <path stroke="#2A95FF" stroke-linecap="round" stroke-linejoin="round" stroke-width="2" d="M50.4 2.9L10.6 2.9M43.4 8.9L10.6 8.9M41 15.6L8.1 15.6M39.3 20.9L6.5 20.9M35.7 28.5L2.9 28.5M33.5 36.1L.7 36.1M64.3 36.1L45.5 36.1" transform="translate(61 307) translate(244 266)"/>
                        </g>
                        <g fill-rule="nonzero">
                            <path fill="#36B37E" stroke="#000" stroke-linecap="round" stroke-width="2" d="M171.8 28.6c-3.1 4.3-18.9 24.1-22.1 24.1l-8.1 32.2-2.7 10.8-20.2 40.6L80.4 98l-4 35.6 12.6-2.9 3.5 28s-5.5 3-10.6 5.2c-5.1 2.1-8.9-1-8.9-1l-.6 5.5-32.5 7.5-19.2 1.6S-2.8 132.4 1 94.3c0 0 2.5-22.9 11.2-29.7 8.7-6.8 17.5-10.8 17.5-10.8s29.7 21.9 40.2-10c0 0 15.3-.2 20 7 4.7 7.2 20.9 37.9 20.9 37.9s2.5-.2 4.7-6.5c.6-1.6 1.9-4.8 3.6-8.6 4.8-10.9 12.5-27.1 12.5-27.1s-2.8-28 3.9-37.3c0 0 0-4.3 5.8-6.2 0 0 4.9-4 8.6-2.2v22.3l9.4-18.3c.5-.9 1.4-1.4 2.2-1.4.7 0 1.5.3 2 1s.7 1.6.3 2.4c-1.7 4.3-6.9 18-7.8 20.1-1 2.5.9 6.5 4.3 3.8 3.4-2.6 9.4-8 11.7-8.6 2-.8 2.9 2.2-.2 6.5z" transform="translate(61 307) translate(109 61)"/>
                            <path fill="#EBECF0" stroke="#000" stroke-linecap="round" stroke-width="2" d="M171.8 28.6c-3.1 4.3-18.9 24.1-22.1 24.1l-8.1 32.2c-9.2 2.4-17.4-4.9-22.6-11.4 4.8-10.9 12.5-27.1 12.5-27.1s-2.8-28 3.9-37.3c0 0 0-4.3 5.8-6.2 0 0 4.9-4 8.6-2.2V23l9.4-18.3c.5-.9 1.4-1.4 2.2-1.4.7 0 1.5.3 2 1s.7 1.6.3 2.4c-1.7 4.3-6.9 18-7.8 20.1-1 2.5.9 6.5 4.3 3.8 3.4-2.6 9.4-8 11.7-8.6 2.1-.7 3 2.3-.1 6.6z" transform="translate(61 307) translate(109 61)"/>
                            <path fill="#36B37E" d="M73.3 116.7L82.7 132.9 70.6 140.6 73.3 116.7" transform="translate(61 307) translate(109 61)"/>
                        </g>
                        <g>
                            <path fill="#EBECF0" fill-rule="nonzero" stroke="#000" stroke-width="2" d="M3.9 50.6l31.9-10.3S64.3 4.6 65.4 2.8c1.1-1.9 8.1-3.1 9.2-2 1.1 1.1-.2 3.3-2.3 5C70.2 7.5 63.1 18 63.1 18s12.5 6.4 13 12.2c.5 5.8 2.3 19.2-8.4 19.2 0 0-4.4 1.3-4.2-3.4 0 0-6.1 10.3-8.3 10.3h-7.4L7.8 78c-.1 0-12.5-10.3-3.9-27.4z" transform="translate(61 307) translate(194 141)"/>
                        </g>
                        <g fill-rule="nonzero" stroke="#000" stroke-width="2">
                            <path fill="#FFAB00" d="M59.1 18.2c-2.9 3.2-11.7 9.1-11.7 9.1s-2.7 16.1-9.2 20.2C35.8 49 32 51.6 28 54.3c-6.9 4.8-14.1 9.9-14.1 9.9L.5 43l19.8-5.1 4.7-1.2S38.2 3.8 40.5 2C42.8.2 55.4.6 57.8 4c2.4 3.3 1.1 4.7-1.5 4.5-2.6-.2-10.5-1.1-10.5-1.1l-3 10.5s10.8-3.5 12.6-3.6c1.8-.2 6.6.7 3.7 3.9z" transform="translate(61 307) translate(173 247)"/>
                            <path fill="#EBECF0" d="M59.1 18.2c-2.9 3.2-11.7 9.1-11.7 9.1s-2.7 16.1-9.2 20.2C35.8 49 32 51.6 28 54.3c0-.2-.1-.4-.1-.6-.1-6.9-4.8-12.8-7.5-15.7l4.7-1.2S38.3 3.9 40.6 2.1C42.9.3 55.5.7 57.9 4.1c2.4 3.3 1.1 4.7-1.5 4.5-2.6-.2-10.5-1.1-10.5-1.1l-3 10.5s10.8-3.5 12.6-3.6c1.7-.3 6.5.6 3.6 3.8z" transform="translate(61 307) translate(173 247)"/>
                        </g>
                        <g>
                            <path fill="#EBECF0" fill-rule="nonzero" stroke="#000" stroke-width="2" d="M12.8 54.5l18.9 2.2s2.5-7.2 3.3-8.2c.7-1 18.2 5.6 22.6-23 0 0-5.8-.3-6.2-2.5-.4-2.2-2.6-8.8-2.6-8.8L32.6.6.6 37.4l12.2 17.1z" transform="translate(61 307) translate(108 159)"/>
                        </g>
                        <g>
                            <path fill="#000" fill-rule="nonzero" stroke="#000" d="M32.5 128.1c-10.7 0-33.5-.7-31.9-21.7 1-8.1 6.1-12 12.5-13.1 1.9 0-5.5-12.8-1.6-18.6 3.9-5.8 11.2-6.8 14.7-8.6 3.5-1.7 13.9-11.9 13.8-15.4-.1-3.5-3.8-18.7-3-22.5.8-3.8 4.5-23.1 18.9-25.7 14.4-2.6 30.3-3.8 41.5 8.4s-2.9 16-2.9 16-4.5-8-9.9-7.9c0 0-10.6 21.9-20.9 20.9l.4 3.8s-8-2.3-8.8-.1c-.8 2.3.1 5.5 3 6.5 2.9 1.1 7.1.7 7.1.7l-32.9 77.3z" transform="translate(61 307) translate(63 149)"/>
                        </g>
                        <g fill-rule="nonzero" stroke="#000" stroke-width="2">
                            <path fill="#FFAB00" d="M193.6 59.4l-5.8 5.5 10.5-.1s3.9.5 4.8 3.1c.9 2.6 2.9 10.2 2.8 12.4 0 0-.4 5.7-2.2 4.9 0 0-.8 6.3-2.9 6.1-2.1-.2-9-8.1-9-8.1s-11.9 13.9-17.2 13.7c-5.4-.2-7.5-.6-7.5-.6l-8.1 4.2-25.2 13.2s-12.6 6.2-19.7 2.9c-7.1-3.2-24.8-28-24.8-28s-1 3-8.5.4l-11.7 9.6 7.3 19-75.6-.7s16.2-22.3 17.4-24c1.2-1.7-2.1-9.6 1-14.5S64.1 0 64.1 0l15.6 3.4s-4.9 10.4.6 13.2c5.5 2.8 14.2 2 21.9 22.4 7.7 20.4 21.5 51 21.5 51l27.5-7.1 8.3-2.2s26.3-24.3 30.9-26.4c4.7-2 15.8-1.1 16.4.2.6 1.3.3 3.9-1.5 4.2-1.7.3-11.7.7-11.7.7z" transform="translate(61 307) translate(60 212)"/>
                            <path fill="#EBECF0" d="M193.6 59.4l-5.8 5.5 10.5-.1s3.9.5 4.8 3.1c.9 2.6 2.9 10.2 2.8 12.4 0 0-.4 5.7-2.2 4.9 0 0-.8 6.3-2.9 6.1-2.1-.2-9-8.1-9-8.1s-11.9 13.9-17.2 13.7c-5.4-.2-7.5-.6-7.5-.6l-8.1 4.2c-1.5-8.1-4.5-13.8-7.6-17.6l8.3-2.2s26.3-24.3 30.9-26.4c4.7-2 15.8-1.1 16.4.2.6 1.3.3 3.9-1.5 4.2-1.9.3-11.9.7-11.9.7z" transform="translate(61 307) translate(60 212)"/>
                        </g>
                        <g transform="translate(61 307) translate(121 54)">
                            <path stroke="#000" stroke-linecap="round" stroke-linejoin="round" stroke-width="2" d="M49.2 13.9s3-8.5 12.1-6.9M58.5 24.4s.8 5.3 8.9 3.6M72.5.9s-7.9 7.3 0 14.6"/>
                            <ellipse cx="60.1" cy="16.1" fill="#000" fill-rule="nonzero" rx="2.8" ry="3.6"/>
                            <path stroke="#000" stroke-linecap="round" stroke-linejoin="round" stroke-width="2" d="M30 119.8s-3.2-4-7.5-1.6"/>
                            <ellipse cx="28.1" cy="126.9" fill="#000" fill-rule="nonzero" rx="1.9" ry="3.7"/>
                            <path stroke="#000" stroke-linecap="round" stroke-linejoin="round" stroke-width="2" d="M34.6 140.6s-7.9-2.6-8.4-5.5c-.5-2.8 0 8.1 4.2 9.9M.2 141.2s3.4.6 5.5 0M14 71.6s22.5 4.3 29.4 17.6c6.9 13.4 27.4 49 27.4 49M44.6 34.7s6.2 2.9 10.3 2.6M119.3 237.5s10.1-4.5 11.5-3.8c1.3.7 11.5 11.4 11.5 11.4"/>
                            <path stroke="#000" stroke-linecap="round" stroke-linejoin="round" stroke-width="2" d="M121.4 229.6l11-1.6s3.5-1.5 5.4 1.6c1.9 3.1 6.7 11 6.7 11M131.1 112s14.3-2 18.3 9.1M133.6 121.1s13-.4 14 8.8M129.4 31L131.1 8.4M123.6 32.4L124.3 13.1M71.9 79.7L68.3 104.9M103.2 105.6L98.7 95.5M39 148.8s16.9 17.9 21.6 20.5M4 179.5s5.9-5.9 15.4-4.9M5.7 219.2L11.7 219.2 28.2 246.6"/>
                        </g>
                    </g>
                </g>
            </g>
        </g>
    </g>
</svg>
