<svg xmlns="http://www.w3.org/2000/svg" xmlns:xlink="http://www.w3.org/1999/xlink" width="14" height="14" viewBox="0 0 14 14">
    <defs>
        <path id="55pn1cqsca" d="M13.796 12.785c.276.276.276.725.007.994l-.024.024c-.272.272-.712.275-.994-.007l-2.532-2.532 1.01-1.011 2.533 2.532zm-8.077-2.778c-2.365 0-4.29-1.923-4.29-4.288s1.925-4.29 4.29-4.29c2.364 0 4.288 1.925 4.288 4.29s-1.924 4.288-4.288 4.288zM5.719 0C2.56 0 0 2.56 0 5.719c0 3.158 2.56 5.718 5.719 5.718 3.158 0 5.718-2.56 5.718-5.718C11.437 2.56 8.877 0 5.72 0z"/>
    </defs>
    <g fill="none" fill-rule="evenodd">
        <g>
            <g>
                <g transform="translate(-1225 -82) translate(1216 73) translate(9 9)">
                    <mask id="63hg3x515b" fill="#fff">
                        <use xlink:href="#55pn1cqsca"/>
                    </mask>
                    <use fill="#000" xlink:href="#55pn1cqsca"/>
                    <path fill="#97A0AF" d="M-1 -1H15V15H-1z" mask="url(#63hg3x515b)"/>
                </g>
            </g>
        </g>
    </g>
</svg>
