 <svg xmlns="http://www.w3.org/2000/svg" width="6"
    height="10" viewBox="0 0 6 10">
    <g fill="none" fill-rule="evenodd">
        <g fill="#7A869A">
            <g>
                <g>
                    <g>
                        <path
                            d="M1 8c.552 0 1 .448 1 1s-.448 1-1 1-1-.448-1-1 .448-1 1-1zm4 0c.552 0 1 .448 1 1s-.448 1-1 1-1-.448-1-1 .448-1 1-1zM1 4c.552 0 1 .448 1 1s-.448 1-1 1-1-.448-1-1 .448-1 1-1zm4 0c.552 0 1 .448 1 1s-.448 1-1 1-1-.448-1-1 .448-1 1-1zM1 0c.552 0 1 .448 1 1s-.448 1-1 1-1-.448-1-1 .448-1 1-1zm4 0c.552 0 1 .448 1 1s-.448 1-1 1-1-.448-1-1 .448-1 1-1z"
                            transform="translate(-72 -249) translate(56 137) translate(8 101) translate(8 11)" />
                    </g>
                </g>
            </g>
        </g>
    </g>
</svg>