<svg xmlns="http://www.w3.org/2000/svg" xmlns:xlink="http://www.w3.org/1999/xlink" width="16" height="16" viewBox="0 0 16 16">
    <defs>
        <path id="ga6x0by7qa" d="M7 0c3.86 0 7 3.14 7 7s-3.14 7-7 7-7-3.14-7-7 3.14-7 7-7zm0 5.3c-.442 0-.8.358-.8.8v4.4c0 .442.358.8.8.8.442 0 .8-.358.8-.8V6.1c0-.442-.358-.8-.8-.8zm0-3.295c-.553 0-1 .448-1 1 0 .553.447 1.001 1 1.001.553 0 1-.448 1-1 0-.553-.447-1.001-1-1.001z"/>
    </defs>
    <g fill="none" fill-rule="evenodd">
        <g>
            <g>
                <g>
                    <g transform="translate(-1061.000000, -431.000000) translate(1038.000000, 431.000000) translate(23.000000, 0.000000) translate(1.000000, 1.000000)">
                        <mask id="hakuy7gozb" fill="#fff">
                            <use xlink:href="#ga6x0by7qa"/>
                        </mask>
                        <use fill="#000" fill-rule="nonzero" xlink:href="#ga6x0by7qa"/>
                        <path fill="#97A0AF" d="M-1 -1H15V15H-1z" mask="url(#hakuy7gozb)"/>
                    </g>
                </g>
            </g>
        </g>
    </g>
</svg>
