<svg xmlns="http://www.w3.org/2000/svg" xmlns:xlink="http://www.w3.org/1999/xlink" width="14" height="14"
    viewBox="0 0 14 14">
    <defs>
        <path id="3sgvp8n6ua"
            d="M14.796 13.785c.276.276.276.725.007.994l-.024.024c-.272.272-.712.275-.994-.007l-2.532-2.532 1.01-1.011 2.533 2.532zm-8.077-2.778c-2.365 0-4.29-1.923-4.29-4.288s1.925-4.29 4.29-4.29c2.364 0 4.288 1.925 4.288 4.29s-1.924 4.288-4.288 4.288zM6.719 1C3.56 1 1 3.56 1 6.719c0 3.158 2.56 5.718 5.719 5.718 3.158 0 5.718-2.56 5.718-5.718C12.437 3.56 9.877 1 6.72 1z" />
    </defs>
    <g fill="none" fill-rule="evenodd">
        <g transform="translate(-1 -1)">
            <use fill="#7a869a" xlink:href="#3sgvp8n6ua" />
        </g>
    </g>
</svg>