<svg xmlns="http://www.w3.org/2000/svg" width="12px" height="12px" viewBox="0 0 16 17">
                        <g fill="none" fill-rule="evenodd">
                            <g>
                                <g>
                                    <g>
                                        <g>
                                            <g>
                                                <g
                                                    transform="translate(-663 -55) translate(68 48) translate(332) translate(242) translate(8 7) translate(13)">
                                                    <rect width="11.636" height="3.879" x="4.364" y="2.909"
                                                        fill="#42526E" class="path" rx="1" />
                                                    <rect width="11.636" height="3.879" x="4.364" y="7.758"
                                                        fill="#42526E" class="path" rx="1" />
                                                    <path fill="#97A0AF" class="path"
                                                        d="M.97 0c.535 0 .97.434.97.97v2.909h.97c.534 0 .969.434.969.97 0 .535-.435.97-.97.97h-.97v2.908h.97c.535 0 .97.434.97.97s-.435.97-.97.97h-.97v1.94c0 .535.435.969.97.969h1.455c.535 0 .97.434.97.97 0 .535-.435.97-.97.97H2.909C1.302 15.515 0 14.212 0 12.605V.97C0 .434.434 0 .97 0z" />
                                                    <rect width="11.636" height="3.879" x="4.364" y="12.606"
                                                        fill="#42526E" class="path" rx="1" />
                                                </g>
                                            </g>
                                        </g>
                                    </g>
                                </g>
                            </g>
                        </g>
                    </svg>